<mxfile host="app.diagrams.net" modified="2020-07-01T15:13:08.866Z" agent="5.0 (Windows NT 10.0; Win64; x64) AppleWebKit/537.36 (KHTML, like Gecko) Chrome/83.0.4103.116 Safari/537.36" etag="XJSyFs9gMA_jHHRSNNAE" version="13.3.5" type="github">
  <diagram id="6a731a19-8d31-9384-78a2-239565b7b9f0" name="Page-1">
    <mxGraphModel dx="920" dy="1656" grid="0" gridSize="10" guides="1" tooltips="1" connect="1" arrows="1" fold="1" page="0" pageScale="1" pageWidth="1169" pageHeight="827" background="#000000" math="0" shadow="0">
      <root>
        <mxCell id="0" />
        <mxCell id="1" parent="0" />
        <mxCell id="1749" value="Binary Trees" style="rounded=1;whiteSpace=wrap;html=1;shadow=0;labelBackgroundColor=none;strokeColor=none;strokeWidth=3;fillColor=#2F5B7C;fontFamily=Helvetica;fontSize=23;fontColor=#FFFFFF;align=center;fontStyle=0;spacing=5;arcSize=7;perimeterSpacing=2;glass=0;" parent="1" vertex="1">
          <mxGeometry x="777" y="-366.5" width="98" height="54" as="geometry" />
        </mxCell>
        <mxCell id="1746" value="" style="edgeStyle=none;rounded=0;jumpStyle=none;html=1;shadow=0;labelBackgroundColor=none;startArrow=none;startFill=0;endArrow=classic;endFill=1;jettySize=auto;orthogonalLoop=1;strokeWidth=3;fontFamily=Helvetica;fontSize=16;fontColor=#23445D;spacing=5;fillColor=#e3c800;strokeColor=#660066;" parent="1" source="1749" target="T0vurwcoZlo6JB8hRkQS-1782" edge="1">
          <mxGeometry relative="1" as="geometry">
            <mxPoint x="857.3076923076924" y="78.65999999999988" as="targetPoint" />
            <mxPoint x="781" y="-134.99969387755098" as="sourcePoint" />
          </mxGeometry>
        </mxCell>
        <mxCell id="T0vurwcoZlo6JB8hRkQS-1781" value="In-order = left, parent, right" style="rounded=1;whiteSpace=wrap;html=1;shadow=0;labelBackgroundColor=none;strokeColor=none;strokeWidth=3;fillColor=#2F5B7C;fontFamily=Helvetica;fontSize=23;fontColor=#FFFFFF;align=center;fontStyle=0;spacing=5;arcSize=7;perimeterSpacing=2;horizontal=1;" parent="1" vertex="1">
          <mxGeometry x="176" y="-401" width="311" height="39" as="geometry" />
        </mxCell>
        <mxCell id="T0vurwcoZlo6JB8hRkQS-1782" value="Heap" style="rounded=1;whiteSpace=wrap;html=1;shadow=0;labelBackgroundColor=none;strokeColor=none;strokeWidth=3;fillColor=#2F5B7C;fontFamily=Helvetica;fontSize=23;fontColor=#FFFFFF;align=center;fontStyle=0;spacing=5;arcSize=7;perimeterSpacing=2;horizontal=1;verticalAlign=middle;" parent="1" vertex="1">
          <mxGeometry x="624" y="-33" width="84" height="34" as="geometry" />
        </mxCell>
        <mxCell id="T0vurwcoZlo6JB8hRkQS-1786" value="" style="edgeStyle=none;rounded=0;jumpStyle=none;html=1;shadow=0;labelBackgroundColor=none;startArrow=none;startFill=0;endArrow=classic;endFill=1;jettySize=auto;orthogonalLoop=1;strokeWidth=3;fontFamily=Helvetica;fontSize=16;fontColor=#23445D;spacing=5;fillColor=#e3c800;strokeColor=#660066;" parent="1" source="T0vurwcoZlo6JB8hRkQS-1782" target="T0vurwcoZlo6JB8hRkQS-1794" edge="1">
          <mxGeometry relative="1" as="geometry">
            <mxPoint x="875" y="129" as="sourcePoint" />
            <mxPoint x="836.6301369863012" y="170.9999999999999" as="targetPoint" />
          </mxGeometry>
        </mxCell>
        <mxCell id="T0vurwcoZlo6JB8hRkQS-1787" value="" style="edgeStyle=none;rounded=0;jumpStyle=none;html=1;shadow=0;labelBackgroundColor=none;startArrow=none;startFill=0;endArrow=classic;endFill=1;jettySize=auto;orthogonalLoop=1;strokeWidth=3;fontFamily=Helvetica;fontSize=16;fontColor=#23445D;spacing=5;fillColor=#e3c800;strokeColor=#660066;" parent="1" source="T0vurwcoZlo6JB8hRkQS-1782" target="T0vurwcoZlo6JB8hRkQS-1795" edge="1">
          <mxGeometry relative="1" as="geometry">
            <mxPoint x="885" y="139" as="sourcePoint" />
            <mxPoint x="902.0273972602738" y="170.9999999999999" as="targetPoint" />
          </mxGeometry>
        </mxCell>
        <mxCell id="T0vurwcoZlo6JB8hRkQS-1788" value="" style="edgeStyle=none;rounded=0;jumpStyle=none;html=1;shadow=0;labelBackgroundColor=none;startArrow=none;startFill=0;endArrow=classic;endFill=1;jettySize=auto;orthogonalLoop=1;strokeWidth=3;fontFamily=Helvetica;fontSize=16;fontColor=#23445D;spacing=5;fillColor=#e3c800;strokeColor=#660066;" parent="1" source="1749" target="T0vurwcoZlo6JB8hRkQS-1781" edge="1">
          <mxGeometry relative="1" as="geometry">
            <mxPoint x="1041" y="-95" as="sourcePoint" />
            <mxPoint x="1041" y="-61" as="targetPoint" />
          </mxGeometry>
        </mxCell>
        <mxCell id="T0vurwcoZlo6JB8hRkQS-1789" value="Pre-order = parent, left, right" style="rounded=1;whiteSpace=wrap;html=1;shadow=0;labelBackgroundColor=none;strokeColor=none;strokeWidth=3;fillColor=#2F5B7C;fontFamily=Helvetica;fontSize=23;fontColor=#FFFFFF;align=center;fontStyle=0;spacing=5;arcSize=7;perimeterSpacing=2;horizontal=1;" parent="1" vertex="1">
          <mxGeometry x="176" y="-353" width="311" height="36" as="geometry" />
        </mxCell>
        <mxCell id="T0vurwcoZlo6JB8hRkQS-1791" value="post-order = left, right, parent" style="rounded=1;whiteSpace=wrap;html=1;shadow=0;labelBackgroundColor=none;strokeColor=none;strokeWidth=3;fillColor=#2F5B7C;fontFamily=Helvetica;fontSize=23;fontColor=#FFFFFF;align=center;fontStyle=0;spacing=5;arcSize=7;perimeterSpacing=2;horizontal=1;" parent="1" vertex="1">
          <mxGeometry x="176" y="-310" width="311" height="38" as="geometry" />
        </mxCell>
        <mxCell id="T0vurwcoZlo6JB8hRkQS-1793" value="" style="edgeStyle=none;rounded=0;jumpStyle=none;html=1;shadow=0;labelBackgroundColor=none;startArrow=none;startFill=0;endArrow=classic;endFill=1;jettySize=auto;orthogonalLoop=1;strokeWidth=3;fontFamily=Helvetica;fontSize=16;fontColor=#23445D;spacing=5;fillColor=#e3c800;strokeColor=#660066;" parent="1" source="1749" target="T0vurwcoZlo6JB8hRkQS-1789" edge="1">
          <mxGeometry relative="1" as="geometry">
            <mxPoint x="912" y="-148.78260869565213" as="sourcePoint" />
            <mxPoint x="933" y="-152.43478260869563" as="targetPoint" />
          </mxGeometry>
        </mxCell>
        <mxCell id="T0vurwcoZlo6JB8hRkQS-1794" value="Min" style="rounded=1;whiteSpace=wrap;html=1;shadow=0;labelBackgroundColor=none;strokeColor=none;strokeWidth=3;fillColor=#2F5B7C;fontFamily=Helvetica;fontSize=23;fontColor=#FFFFFF;align=center;fontStyle=0;spacing=5;arcSize=7;perimeterSpacing=2;horizontal=1;verticalAlign=middle;" parent="1" vertex="1">
          <mxGeometry x="574" y="23" width="79.5" height="43" as="geometry" />
        </mxCell>
        <mxCell id="T0vurwcoZlo6JB8hRkQS-1795" value="Max" style="rounded=1;whiteSpace=wrap;html=1;shadow=0;labelBackgroundColor=none;strokeColor=none;strokeWidth=3;fillColor=#2F5B7C;fontFamily=Helvetica;fontSize=23;fontColor=#FFFFFF;align=center;fontStyle=0;spacing=5;arcSize=7;perimeterSpacing=2;horizontal=1;verticalAlign=middle;" parent="1" vertex="1">
          <mxGeometry x="690" y="24" width="79" height="41" as="geometry" />
        </mxCell>
        <mxCell id="T0vurwcoZlo6JB8hRkQS-1797" value="" style="edgeStyle=none;rounded=0;jumpStyle=none;html=1;shadow=0;labelBackgroundColor=none;startArrow=none;startFill=0;endArrow=classic;endFill=1;jettySize=auto;orthogonalLoop=1;strokeWidth=3;fontFamily=Helvetica;fontSize=16;fontColor=#23445D;spacing=5;fillColor=#e3c800;strokeColor=#660066;" parent="1" source="1749" target="T0vurwcoZlo6JB8hRkQS-1791" edge="1">
          <mxGeometry relative="1" as="geometry">
            <mxPoint x="912" y="-142.56877323420065" as="sourcePoint" />
            <mxPoint x="987" y="-138.66542750929364" as="targetPoint" />
          </mxGeometry>
        </mxCell>
        <mxCell id="T0vurwcoZlo6JB8hRkQS-1798" value="Graph" style="rounded=1;whiteSpace=wrap;html=1;shadow=0;labelBackgroundColor=none;strokeColor=none;strokeWidth=3;fillColor=#2F5B7C;fontFamily=Helvetica;fontSize=23;fontColor=#FFFFFF;align=center;fontStyle=0;spacing=5;arcSize=7;perimeterSpacing=2;" parent="1" vertex="1">
          <mxGeometry x="1716" y="-243" width="122" height="47" as="geometry" />
        </mxCell>
        <mxCell id="T0vurwcoZlo6JB8hRkQS-1799" value="Data structures" style="rounded=1;whiteSpace=wrap;html=1;shadow=0;labelBackgroundColor=none;strokeColor=none;strokeWidth=3;fillColor=#2F5B7C;fontFamily=Helvetica;fontSize=23;fontColor=#FFFFFF;align=center;fontStyle=0;spacing=5;arcSize=7;perimeterSpacing=2;" parent="1" vertex="1">
          <mxGeometry x="1196" y="-393" width="139" height="64" as="geometry" />
        </mxCell>
        <mxCell id="cFTijlWa25xeLsZB_8mZ-1750" value="" style="edgeStyle=none;rounded=0;jumpStyle=none;html=1;shadow=0;labelBackgroundColor=none;startArrow=none;startFill=0;endArrow=classic;endFill=1;jettySize=auto;orthogonalLoop=1;strokeWidth=3;fontFamily=Helvetica;fontSize=16;fontColor=#23445D;spacing=5;fillColor=#e3c800;strokeColor=#660066;" parent="1" source="T0vurwcoZlo6JB8hRkQS-1799" target="1749" edge="1">
          <mxGeometry relative="1" as="geometry">
            <mxPoint x="233" y="190.688352570829" as="sourcePoint" />
            <mxPoint x="348" y="169.69150052465898" as="targetPoint" />
          </mxGeometry>
        </mxCell>
        <mxCell id="cFTijlWa25xeLsZB_8mZ-1751" value="" style="edgeStyle=none;rounded=0;jumpStyle=none;html=1;shadow=0;labelBackgroundColor=none;startArrow=none;startFill=0;endArrow=classic;endFill=1;jettySize=auto;orthogonalLoop=1;strokeWidth=3;fontFamily=Helvetica;fontSize=16;fontColor=#23445D;spacing=5;fillColor=#e3c800;strokeColor=#660066;" parent="1" source="T0vurwcoZlo6JB8hRkQS-1799" target="T0vurwcoZlo6JB8hRkQS-1798" edge="1">
          <mxGeometry relative="1" as="geometry">
            <mxPoint x="243" y="200.688352570829" as="sourcePoint" />
            <mxPoint x="358" y="179.69150052465898" as="targetPoint" />
          </mxGeometry>
        </mxCell>
        <mxCell id="cFTijlWa25xeLsZB_8mZ-1752" value="Lists" style="rounded=1;whiteSpace=wrap;html=1;shadow=0;labelBackgroundColor=none;strokeColor=none;strokeWidth=3;fillColor=#2F5B7C;fontFamily=Helvetica;fontSize=23;fontColor=#FFFFFF;align=center;fontStyle=0;spacing=5;arcSize=7;perimeterSpacing=2;" parent="1" vertex="1">
          <mxGeometry x="2245" y="-243" width="122" height="47" as="geometry" />
        </mxCell>
        <mxCell id="cFTijlWa25xeLsZB_8mZ-1754" value="" style="edgeStyle=none;rounded=0;jumpStyle=none;html=1;shadow=0;labelBackgroundColor=none;startArrow=none;startFill=0;endArrow=classic;endFill=1;jettySize=auto;orthogonalLoop=1;strokeWidth=3;fontFamily=Helvetica;fontSize=16;fontColor=#23445D;spacing=5;fillColor=#e3c800;strokeColor=#660066;" parent="1" source="T0vurwcoZlo6JB8hRkQS-1799" target="cFTijlWa25xeLsZB_8mZ-1752" edge="1">
          <mxGeometry relative="1" as="geometry">
            <mxPoint x="1440" y="-12" as="sourcePoint" />
            <mxPoint x="1783" y="-62" as="targetPoint" />
          </mxGeometry>
        </mxCell>
        <mxCell id="cFTijlWa25xeLsZB_8mZ-1756" value="" style="edgeStyle=none;rounded=0;jumpStyle=none;html=1;shadow=0;labelBackgroundColor=none;startArrow=none;startFill=0;endArrow=classic;endFill=1;jettySize=auto;orthogonalLoop=1;strokeWidth=3;fontFamily=Helvetica;fontSize=16;fontColor=#23445D;spacing=5;fillColor=#e3c800;strokeColor=#660066;" parent="1" source="cFTijlWa25xeLsZB_8mZ-1752" target="cFTijlWa25xeLsZB_8mZ-1782" edge="1">
          <mxGeometry relative="1" as="geometry">
            <mxPoint x="1474.999999999999" y="-341.2204301075267" as="sourcePoint" />
            <mxPoint x="2205.7040000000006" y="-120.00000000000023" as="targetPoint" />
          </mxGeometry>
        </mxCell>
        <mxCell id="cFTijlWa25xeLsZB_8mZ-1758" value="Sorting Algorithm" style="rounded=1;whiteSpace=wrap;html=1;shadow=0;labelBackgroundColor=none;strokeColor=none;strokeWidth=3;fillColor=#2F5B7C;fontFamily=Helvetica;fontSize=23;fontColor=#FFFFFF;align=center;fontStyle=0;spacing=5;arcSize=7;perimeterSpacing=2;" parent="1" vertex="1">
          <mxGeometry x="2073" y="354" width="139" height="64" as="geometry" />
        </mxCell>
        <mxCell id="cFTijlWa25xeLsZB_8mZ-1760" value="Traversal" style="rounded=1;whiteSpace=wrap;html=1;shadow=0;labelBackgroundColor=none;strokeColor=none;strokeWidth=3;fillColor=#2F5B7C;fontFamily=Helvetica;fontSize=23;fontColor=#FFFFFF;align=center;fontStyle=0;spacing=5;arcSize=7;perimeterSpacing=2;" parent="1" vertex="1">
          <mxGeometry x="1490" y="-196.5" width="139" height="64" as="geometry" />
        </mxCell>
        <mxCell id="cFTijlWa25xeLsZB_8mZ-1761" value="" style="edgeStyle=none;rounded=0;jumpStyle=none;html=1;shadow=0;labelBackgroundColor=none;startArrow=none;startFill=0;endArrow=classic;endFill=1;jettySize=auto;orthogonalLoop=1;strokeWidth=3;fontFamily=Helvetica;fontSize=16;fontColor=#23445D;spacing=5;fillColor=#e3c800;strokeColor=#660066;" parent="1" source="T0vurwcoZlo6JB8hRkQS-1798" target="cFTijlWa25xeLsZB_8mZ-1760" edge="1">
          <mxGeometry relative="1" as="geometry">
            <mxPoint x="-159" y="-341.60649819494574" as="sourcePoint" />
            <mxPoint x="-293" y="-288.39350180505426" as="targetPoint" />
          </mxGeometry>
        </mxCell>
        <mxCell id="cFTijlWa25xeLsZB_8mZ-1762" value="Binary search" style="rounded=1;whiteSpace=wrap;html=1;shadow=0;labelBackgroundColor=none;strokeColor=none;strokeWidth=3;fillColor=#2F5B7C;fontFamily=Helvetica;fontSize=23;fontColor=#FFFFFF;align=center;fontStyle=0;spacing=5;arcSize=7;perimeterSpacing=2;horizontal=1;verticalAlign=middle;" parent="1" vertex="1">
          <mxGeometry x="816" y="-33" width="157" height="34" as="geometry" />
        </mxCell>
        <mxCell id="cFTijlWa25xeLsZB_8mZ-1763" value="" style="edgeStyle=none;rounded=0;jumpStyle=none;html=1;shadow=0;labelBackgroundColor=none;startArrow=none;startFill=0;endArrow=classic;endFill=1;jettySize=auto;orthogonalLoop=1;strokeWidth=3;fontFamily=Helvetica;fontSize=16;fontColor=#23445D;spacing=5;fillColor=#e3c800;strokeColor=#660066;" parent="1" source="1749" target="cFTijlWa25xeLsZB_8mZ-1762" edge="1">
          <mxGeometry relative="1" as="geometry">
            <mxPoint x="699.278145695364" y="-25" as="targetPoint" />
            <mxPoint x="825.4701986754962" y="-128" as="sourcePoint" />
          </mxGeometry>
        </mxCell>
        <mxCell id="cFTijlWa25xeLsZB_8mZ-1766" value="Notations" style="rounded=1;whiteSpace=wrap;html=1;shadow=0;labelBackgroundColor=none;strokeColor=none;strokeWidth=3;fillColor=#2F5B7C;fontFamily=Helvetica;fontSize=23;fontColor=#FFFFFF;align=center;fontStyle=0;spacing=5;arcSize=7;perimeterSpacing=2;glass=0;" parent="1" vertex="1">
          <mxGeometry x="1052" y="329" width="122" height="54" as="geometry" />
        </mxCell>
        <mxCell id="cFTijlWa25xeLsZB_8mZ-1767" value="&lt;font style=&quot;font-size: 17px&quot;&gt;Ω(Omega) best-case&lt;/font&gt;" style="rounded=1;whiteSpace=wrap;html=1;shadow=0;labelBackgroundColor=none;strokeColor=none;strokeWidth=3;fillColor=#2F5B7C;fontFamily=Helvetica;fontSize=17;fontColor=#FFFFFF;align=center;fontStyle=0;spacing=5;arcSize=7;perimeterSpacing=2;glass=0;" parent="1" vertex="1">
          <mxGeometry x="904" y="442.5" width="110" height="51.5" as="geometry" />
        </mxCell>
        <mxCell id="cFTijlWa25xeLsZB_8mZ-1770" value="&lt;font style=&quot;font-size: 17px&quot;&gt;Θ(Theta) Average-case&lt;/font&gt;" style="rounded=1;whiteSpace=wrap;html=1;shadow=0;labelBackgroundColor=none;strokeColor=none;strokeWidth=3;fillColor=#2F5B7C;fontFamily=Helvetica;fontSize=17;fontColor=#FFFFFF;align=center;fontStyle=0;spacing=5;arcSize=7;perimeterSpacing=2;glass=0;" parent="1" vertex="1">
          <mxGeometry x="1052" y="443.75" width="128" height="49" as="geometry" />
        </mxCell>
        <mxCell id="cFTijlWa25xeLsZB_8mZ-1771" value="&lt;font style=&quot;font-size: 17px&quot;&gt;O(big-Oh) worst-case&lt;/font&gt;" style="rounded=1;whiteSpace=wrap;html=1;shadow=0;labelBackgroundColor=none;strokeColor=none;strokeWidth=3;fillColor=#2F5B7C;fontFamily=Helvetica;fontSize=17;fontColor=#FFFFFF;align=center;fontStyle=0;spacing=5;arcSize=7;perimeterSpacing=2;glass=0;" parent="1" vertex="1">
          <mxGeometry x="1227" y="446" width="119" height="50.5" as="geometry" />
        </mxCell>
        <mxCell id="cFTijlWa25xeLsZB_8mZ-1772" value="" style="edgeStyle=none;rounded=0;jumpStyle=none;html=1;shadow=0;labelBackgroundColor=none;startArrow=none;startFill=0;endArrow=classic;endFill=1;jettySize=auto;orthogonalLoop=1;strokeWidth=3;fontFamily=Helvetica;fontSize=16;fontColor=#23445D;spacing=5;fillColor=#e3c800;strokeColor=#660066;" parent="1" source="cFTijlWa25xeLsZB_8mZ-1766" target="cFTijlWa25xeLsZB_8mZ-1767" edge="1">
          <mxGeometry relative="1" as="geometry">
            <mxPoint x="1361.2781456953649" y="659.9999999999998" as="targetPoint" />
            <mxPoint x="1487.4701986754967" y="557" as="sourcePoint" />
          </mxGeometry>
        </mxCell>
        <mxCell id="cFTijlWa25xeLsZB_8mZ-1773" value="" style="edgeStyle=none;rounded=0;jumpStyle=none;html=1;shadow=0;labelBackgroundColor=none;startArrow=none;startFill=0;endArrow=classic;endFill=1;jettySize=auto;orthogonalLoop=1;strokeWidth=3;fontFamily=Helvetica;fontSize=16;fontColor=#23445D;spacing=5;fillColor=#e3c800;strokeColor=#660066;" parent="1" source="cFTijlWa25xeLsZB_8mZ-1766" target="cFTijlWa25xeLsZB_8mZ-1770" edge="1">
          <mxGeometry relative="1" as="geometry">
            <mxPoint x="1371.2781456953649" y="669.9999999999998" as="targetPoint" />
            <mxPoint x="1497.4701986754967" y="567" as="sourcePoint" />
          </mxGeometry>
        </mxCell>
        <mxCell id="cFTijlWa25xeLsZB_8mZ-1774" value="" style="edgeStyle=none;rounded=0;jumpStyle=none;html=1;shadow=0;labelBackgroundColor=none;startArrow=none;startFill=0;endArrow=classic;endFill=1;jettySize=auto;orthogonalLoop=1;strokeWidth=3;fontFamily=Helvetica;fontSize=16;fontColor=#23445D;spacing=5;fillColor=#e3c800;strokeColor=#660066;" parent="1" source="cFTijlWa25xeLsZB_8mZ-1766" target="cFTijlWa25xeLsZB_8mZ-1771" edge="1">
          <mxGeometry relative="1" as="geometry">
            <mxPoint x="1381.2781456953649" y="679.9999999999998" as="targetPoint" />
            <mxPoint x="1507.4701986754967" y="577" as="sourcePoint" />
          </mxGeometry>
        </mxCell>
        <mxCell id="cFTijlWa25xeLsZB_8mZ-1775" value="Bubble Sort" style="rounded=1;whiteSpace=wrap;html=1;shadow=0;labelBackgroundColor=none;strokeColor=none;strokeWidth=3;fillColor=#2F5B7C;fontFamily=Helvetica;fontSize=23;fontColor=#FFFFFF;align=center;fontStyle=0;spacing=5;arcSize=7;perimeterSpacing=2;" parent="1" vertex="1">
          <mxGeometry x="1886" y="159" width="162" height="64" as="geometry" />
        </mxCell>
        <mxCell id="cFTijlWa25xeLsZB_8mZ-1776" value="Vector Lists&lt;span style=&quot;color: rgba(0 , 0 , 0 , 0) ; font-family: monospace ; font-size: 0px&quot;&gt;%3CmxGraphModel%3E%3Croot%3E%3CmxCell%20id%3D%220%22%2F%3E%3CmxCell%20id%3D%221%22%20parent%3D%220%22%2F%3E%3CmxCell%20id%3D%222%22%20value%3D%22Array%20Lists%22%20style%3D%22rounded%3D1%3BwhiteSpace%3Dwrap%3Bhtml%3D1%3Bshadow%3D0%3BlabelBackgroundColor%3Dnone%3BstrokeColor%3Dnone%3BstrokeWidth%3D3%3BfillColor%3D%232F5B7C%3BfontFamily%3DHelvetica%3BfontSize%3D23%3BfontColor%3D%23FFFFFF%3Balign%3Dcenter%3BfontStyle%3D0%3Bspacing%3D5%3BarcSize%3D7%3BperimeterSpacing%3D2%3B%22%20vertex%3D%221%22%20parent%3D%221%22%3E%3CmxGeometry%20x%3D%222005%22%20y%3D%22-123%22%20width%3D%22182%22%20height%3D%2247%22%20as%3D%22geometry%22%2F%3E%3C%2FmxCell%3E%3C%2Froot%3E%3C%2FmxGraphModel%3E&lt;/span&gt;" style="rounded=1;whiteSpace=wrap;html=1;shadow=0;labelBackgroundColor=none;strokeColor=none;strokeWidth=3;fillColor=#2F5B7C;fontFamily=Helvetica;fontSize=23;fontColor=#FFFFFF;align=center;fontStyle=0;spacing=5;arcSize=7;perimeterSpacing=2;" parent="1" vertex="1">
          <mxGeometry x="2454" y="-250" width="182" height="47" as="geometry" />
        </mxCell>
        <mxCell id="cFTijlWa25xeLsZB_8mZ-1777" value="Linked List" style="rounded=1;whiteSpace=wrap;html=1;shadow=0;labelBackgroundColor=none;strokeColor=none;strokeWidth=3;fillColor=#2F5B7C;fontFamily=Helvetica;fontSize=23;fontColor=#FFFFFF;align=center;fontStyle=0;spacing=5;arcSize=7;perimeterSpacing=2;" parent="1" vertex="1">
          <mxGeometry x="2450" y="-188" width="182" height="47" as="geometry" />
        </mxCell>
        <mxCell id="cFTijlWa25xeLsZB_8mZ-1778" value="" style="edgeStyle=none;rounded=0;jumpStyle=none;html=1;shadow=0;labelBackgroundColor=none;startArrow=none;startFill=0;endArrow=classic;endFill=1;jettySize=auto;orthogonalLoop=1;strokeWidth=3;fontFamily=Helvetica;fontSize=16;fontColor=#23445D;spacing=5;fillColor=#e3c800;strokeColor=#660066;" parent="1" source="cFTijlWa25xeLsZB_8mZ-1752" target="cFTijlWa25xeLsZB_8mZ-1776" edge="1">
          <mxGeometry relative="1" as="geometry">
            <mxPoint x="2290.2960000000003" y="-184.00000000000045" as="sourcePoint" />
            <mxPoint x="2215.7040000000006" y="-110.00000000000023" as="targetPoint" />
          </mxGeometry>
        </mxCell>
        <mxCell id="cFTijlWa25xeLsZB_8mZ-1779" value="" style="edgeStyle=none;rounded=0;jumpStyle=none;html=1;shadow=0;labelBackgroundColor=none;startArrow=none;startFill=0;endArrow=classic;endFill=1;jettySize=auto;orthogonalLoop=1;strokeWidth=3;fontFamily=Helvetica;fontSize=16;fontColor=#23445D;spacing=5;fillColor=#e3c800;strokeColor=#660066;" parent="1" source="cFTijlWa25xeLsZB_8mZ-1752" target="cFTijlWa25xeLsZB_8mZ-1777" edge="1">
          <mxGeometry relative="1" as="geometry">
            <mxPoint x="2335.992" y="-184.00000000000045" as="sourcePoint" />
            <mxPoint x="2394.008" y="-110.00000000000023" as="targetPoint" />
          </mxGeometry>
        </mxCell>
        <mxCell id="cFTijlWa25xeLsZB_8mZ-1780" value="Adjacency List" style="rounded=1;whiteSpace=wrap;html=1;shadow=0;labelBackgroundColor=none;strokeColor=none;strokeWidth=3;fillColor=#2F5B7C;fontFamily=Helvetica;fontSize=23;fontColor=#FFFFFF;align=center;fontStyle=0;spacing=5;arcSize=7;perimeterSpacing=2;" parent="1" vertex="1">
          <mxGeometry x="1845" y="-159.5" width="182" height="47" as="geometry" />
        </mxCell>
        <mxCell id="cFTijlWa25xeLsZB_8mZ-1782" value="Array Lists" style="rounded=1;whiteSpace=wrap;html=1;shadow=0;labelBackgroundColor=none;strokeColor=none;strokeWidth=3;fillColor=#2F5B7C;fontFamily=Helvetica;fontSize=23;fontColor=#FFFFFF;align=center;fontStyle=0;spacing=5;arcSize=7;perimeterSpacing=2;" parent="1" vertex="1">
          <mxGeometry x="2458" y="-316" width="182" height="47" as="geometry" />
        </mxCell>
        <mxCell id="cFTijlWa25xeLsZB_8mZ-1783" value="" style="edgeStyle=none;rounded=0;jumpStyle=none;html=1;shadow=0;labelBackgroundColor=none;startArrow=none;startFill=0;endArrow=classic;endFill=1;jettySize=auto;orthogonalLoop=1;strokeWidth=3;fontFamily=Helvetica;fontSize=16;fontColor=#23445D;spacing=5;fillColor=#e3c800;strokeColor=#660066;" parent="1" source="T0vurwcoZlo6JB8hRkQS-1798" target="cFTijlWa25xeLsZB_8mZ-1780" edge="1">
          <mxGeometry relative="1" as="geometry">
            <mxPoint x="1765.635135135136" y="-184.00000000000045" as="sourcePoint" />
            <mxPoint x="1675.9864864864867" y="-77" as="targetPoint" />
          </mxGeometry>
        </mxCell>
        <mxCell id="cFTijlWa25xeLsZB_8mZ-1784" value="Adjacency Matrix" style="rounded=1;whiteSpace=wrap;html=1;shadow=0;labelBackgroundColor=none;strokeColor=none;strokeWidth=3;fillColor=#2F5B7C;fontFamily=Helvetica;fontSize=23;fontColor=#FFFFFF;align=center;fontStyle=0;spacing=5;arcSize=7;perimeterSpacing=2;" parent="1" vertex="1">
          <mxGeometry x="1889" y="-219" width="197" height="47" as="geometry" />
        </mxCell>
        <mxCell id="cFTijlWa25xeLsZB_8mZ-1785" value="" style="edgeStyle=none;rounded=0;jumpStyle=none;html=1;shadow=0;labelBackgroundColor=none;startArrow=none;startFill=0;endArrow=classic;endFill=1;jettySize=auto;orthogonalLoop=1;strokeWidth=3;fontFamily=Helvetica;fontSize=16;fontColor=#23445D;spacing=5;fillColor=#e3c800;strokeColor=#660066;" parent="1" source="T0vurwcoZlo6JB8hRkQS-1798" target="cFTijlWa25xeLsZB_8mZ-1784" edge="1">
          <mxGeometry relative="1" as="geometry">
            <mxPoint x="1755.635135135136" y="-194.00000000000045" as="sourcePoint" />
            <mxPoint x="1665.9864864864867" y="-87" as="targetPoint" />
          </mxGeometry>
        </mxCell>
        <mxCell id="cFTijlWa25xeLsZB_8mZ-1786" value="Singly" style="rounded=1;whiteSpace=wrap;html=1;shadow=0;labelBackgroundColor=none;strokeColor=none;strokeWidth=3;fillColor=#2F5B7C;fontFamily=Helvetica;fontSize=23;fontColor=#FFFFFF;align=center;fontStyle=0;spacing=5;arcSize=7;perimeterSpacing=2;" parent="1" vertex="1">
          <mxGeometry x="2410" y="-101" width="97" height="47" as="geometry" />
        </mxCell>
        <mxCell id="cFTijlWa25xeLsZB_8mZ-1788" value="" style="edgeStyle=none;rounded=0;jumpStyle=none;html=1;shadow=0;labelBackgroundColor=none;startArrow=none;startFill=0;endArrow=classic;endFill=1;jettySize=auto;orthogonalLoop=1;strokeWidth=3;fontFamily=Helvetica;fontSize=16;fontColor=#23445D;spacing=5;fillColor=#e3c800;strokeColor=#660066;" parent="1" source="cFTijlWa25xeLsZB_8mZ-1777" target="cFTijlWa25xeLsZB_8mZ-1786" edge="1">
          <mxGeometry relative="1" as="geometry">
            <mxPoint x="2379" y="-194.75531914893645" as="sourcePoint" />
            <mxPoint x="2458" y="-176.26595744680867" as="targetPoint" />
          </mxGeometry>
        </mxCell>
        <mxCell id="cFTijlWa25xeLsZB_8mZ-1789" value="Doubly" style="rounded=1;whiteSpace=wrap;html=1;shadow=0;labelBackgroundColor=none;strokeColor=none;strokeWidth=3;fillColor=#2F5B7C;fontFamily=Helvetica;fontSize=23;fontColor=#FFFFFF;align=center;fontStyle=0;spacing=5;arcSize=7;perimeterSpacing=2;" parent="1" vertex="1">
          <mxGeometry x="2582" y="-101" width="97" height="47" as="geometry" />
        </mxCell>
        <mxCell id="cFTijlWa25xeLsZB_8mZ-1790" value="" style="edgeStyle=none;rounded=0;jumpStyle=none;html=1;shadow=0;labelBackgroundColor=none;startArrow=none;startFill=0;endArrow=classic;endFill=1;jettySize=auto;orthogonalLoop=1;strokeWidth=3;fontFamily=Helvetica;fontSize=16;fontColor=#23445D;spacing=5;fillColor=#e3c800;strokeColor=#660066;" parent="1" source="cFTijlWa25xeLsZB_8mZ-1777" target="cFTijlWa25xeLsZB_8mZ-1789" edge="1">
          <mxGeometry relative="1" as="geometry">
            <mxPoint x="2691.818965517242" y="-131.50000000000045" as="sourcePoint" />
            <mxPoint x="2633" y="-168.76595744680867" as="targetPoint" />
          </mxGeometry>
        </mxCell>
        <mxCell id="cFTijlWa25xeLsZB_8mZ-1791" value="Bucket Sort" style="rounded=1;whiteSpace=wrap;html=1;shadow=0;labelBackgroundColor=none;strokeColor=none;strokeWidth=3;fillColor=#2F5B7C;fontFamily=Helvetica;fontSize=23;fontColor=#FFFFFF;align=center;fontStyle=0;spacing=5;arcSize=7;perimeterSpacing=2;" parent="1" vertex="1">
          <mxGeometry x="2082" y="163" width="161" height="64" as="geometry" />
        </mxCell>
        <mxCell id="cFTijlWa25xeLsZB_8mZ-1792" value="" style="edgeStyle=none;rounded=0;jumpStyle=none;html=1;shadow=0;labelBackgroundColor=none;startArrow=none;startFill=0;endArrow=classic;endFill=1;jettySize=auto;orthogonalLoop=1;strokeWidth=3;fontFamily=Helvetica;fontSize=16;fontColor=#23445D;spacing=5;fillColor=#e3c800;strokeColor=#660066;" parent="1" source="cFTijlWa25xeLsZB_8mZ-1758" target="cFTijlWa25xeLsZB_8mZ-1775" edge="1">
          <mxGeometry relative="1" as="geometry">
            <mxPoint x="2153.876146788991" y="321" as="sourcePoint" />
            <mxPoint x="2189" y="501" as="targetPoint" />
          </mxGeometry>
        </mxCell>
        <mxCell id="cFTijlWa25xeLsZB_8mZ-1793" value="" style="edgeStyle=none;rounded=0;jumpStyle=none;html=1;shadow=0;labelBackgroundColor=none;startArrow=none;startFill=0;endArrow=classic;endFill=1;jettySize=auto;orthogonalLoop=1;strokeWidth=3;fontFamily=Helvetica;fontSize=16;fontColor=#23445D;spacing=5;fillColor=#e3c800;strokeColor=#660066;" parent="1" source="cFTijlWa25xeLsZB_8mZ-1758" target="cFTijlWa25xeLsZB_8mZ-1791" edge="1">
          <mxGeometry relative="1" as="geometry">
            <mxPoint x="2163.876146788991" y="331" as="sourcePoint" />
            <mxPoint x="2163.123853211009" y="371.9999999999998" as="targetPoint" />
          </mxGeometry>
        </mxCell>
        <mxCell id="cFTijlWa25xeLsZB_8mZ-1794" value="Insertion Sort" style="rounded=1;whiteSpace=wrap;html=1;shadow=0;labelBackgroundColor=none;strokeColor=none;strokeWidth=3;fillColor=#2F5B7C;fontFamily=Helvetica;fontSize=23;fontColor=#FFFFFF;align=center;fontStyle=0;spacing=5;arcSize=7;perimeterSpacing=2;" parent="1" vertex="1">
          <mxGeometry x="2346" y="343" width="167" height="64" as="geometry" />
        </mxCell>
        <mxCell id="cFTijlWa25xeLsZB_8mZ-1796" value="" style="edgeStyle=none;rounded=0;jumpStyle=none;html=1;shadow=0;labelBackgroundColor=none;startArrow=none;startFill=0;endArrow=classic;endFill=1;jettySize=auto;orthogonalLoop=1;strokeWidth=3;fontFamily=Helvetica;fontSize=16;fontColor=#23445D;spacing=5;fillColor=#e3c800;strokeColor=#660066;" parent="1" source="cFTijlWa25xeLsZB_8mZ-1758" target="cFTijlWa25xeLsZB_8mZ-1794" edge="1">
          <mxGeometry relative="1" as="geometry">
            <mxPoint x="2214" y="608" as="sourcePoint" />
            <mxPoint x="2189" y="723" as="targetPoint" />
          </mxGeometry>
        </mxCell>
        <mxCell id="cFTijlWa25xeLsZB_8mZ-1797" value="" style="edgeStyle=none;rounded=0;jumpStyle=none;html=1;shadow=0;labelBackgroundColor=none;startArrow=none;startFill=0;endArrow=classic;endFill=1;jettySize=auto;orthogonalLoop=1;strokeWidth=3;fontFamily=Helvetica;fontSize=16;fontColor=#23445D;spacing=5;fillColor=#e3c800;strokeColor=#660066;" parent="1" source="cFTijlWa25xeLsZB_8mZ-1758" target="cFTijlWa25xeLsZB_8mZ-1798" edge="1">
          <mxGeometry relative="1" as="geometry">
            <mxPoint x="2210.209401709402" y="641.9999999999998" as="sourcePoint" />
            <mxPoint x="2338.132075471698" y="564" as="targetPoint" />
          </mxGeometry>
        </mxCell>
        <mxCell id="cFTijlWa25xeLsZB_8mZ-1798" value="Counting Sort" style="rounded=1;whiteSpace=wrap;html=1;shadow=0;labelBackgroundColor=none;strokeColor=none;strokeWidth=3;fillColor=#2F5B7C;fontFamily=Helvetica;fontSize=23;fontColor=#FFFFFF;align=center;fontStyle=0;spacing=5;arcSize=7;perimeterSpacing=2;" parent="1" vertex="1">
          <mxGeometry x="2314" y="177" width="166" height="64" as="geometry" />
        </mxCell>
        <mxCell id="cFTijlWa25xeLsZB_8mZ-1799" value="Selection Sort" style="rounded=1;whiteSpace=wrap;html=1;shadow=0;labelBackgroundColor=none;strokeColor=none;strokeWidth=3;fillColor=#2F5B7C;fontFamily=Helvetica;fontSize=23;fontColor=#FFFFFF;align=center;fontStyle=0;spacing=5;arcSize=7;perimeterSpacing=2;" parent="1" vertex="1">
          <mxGeometry x="2301" y="465" width="167" height="64" as="geometry" />
        </mxCell>
        <mxCell id="cFTijlWa25xeLsZB_8mZ-1800" value="" style="edgeStyle=none;rounded=0;jumpStyle=none;html=1;shadow=0;labelBackgroundColor=none;startArrow=none;startFill=0;endArrow=classic;endFill=1;jettySize=auto;orthogonalLoop=1;strokeWidth=3;fontFamily=Helvetica;fontSize=16;fontColor=#23445D;spacing=5;fillColor=#e3c800;strokeColor=#660066;" parent="1" source="cFTijlWa25xeLsZB_8mZ-1758" target="cFTijlWa25xeLsZB_8mZ-1799" edge="1">
          <mxGeometry relative="1" as="geometry">
            <mxPoint x="2224" y="422.7222222222224" as="sourcePoint" />
            <mxPoint x="2364" y="475.0454545454545" as="targetPoint" />
          </mxGeometry>
        </mxCell>
        <mxCell id="cFTijlWa25xeLsZB_8mZ-1801" value="Radix Sort" style="rounded=1;whiteSpace=wrap;html=1;shadow=0;labelBackgroundColor=none;strokeColor=none;strokeWidth=3;fillColor=#2F5B7C;fontFamily=Helvetica;fontSize=23;fontColor=#FFFFFF;align=center;fontStyle=0;spacing=5;arcSize=7;perimeterSpacing=2;" parent="1" vertex="1">
          <mxGeometry x="2167" y="560.5" width="167" height="64" as="geometry" />
        </mxCell>
        <mxCell id="cFTijlWa25xeLsZB_8mZ-1802" value="" style="edgeStyle=none;rounded=0;jumpStyle=none;html=1;shadow=0;labelBackgroundColor=none;startArrow=none;startFill=0;endArrow=classic;endFill=1;jettySize=auto;orthogonalLoop=1;strokeWidth=3;fontFamily=Helvetica;fontSize=16;fontColor=#23445D;spacing=5;fillColor=#e3c800;strokeColor=#660066;" parent="1" source="cFTijlWa25xeLsZB_8mZ-1758" target="cFTijlWa25xeLsZB_8mZ-1801" edge="1">
          <mxGeometry relative="1" as="geometry">
            <mxPoint x="2224" y="428.7954545454545" as="sourcePoint" />
            <mxPoint x="2320.373873873874" y="473" as="targetPoint" />
          </mxGeometry>
        </mxCell>
        <mxCell id="cFTijlWa25xeLsZB_8mZ-1803" value="Heap Sort" style="rounded=1;whiteSpace=wrap;html=1;shadow=0;labelBackgroundColor=none;strokeColor=none;strokeWidth=3;fillColor=#2F5B7C;fontFamily=Helvetica;fontSize=23;fontColor=#FFFFFF;align=center;fontStyle=0;spacing=5;arcSize=7;perimeterSpacing=2;" parent="1" vertex="1">
          <mxGeometry x="1947" y="565" width="167" height="64" as="geometry" />
        </mxCell>
        <mxCell id="cFTijlWa25xeLsZB_8mZ-1804" value="" style="edgeStyle=none;rounded=0;jumpStyle=none;html=1;shadow=0;labelBackgroundColor=none;startArrow=none;startFill=0;endArrow=classic;endFill=1;jettySize=auto;orthogonalLoop=1;strokeWidth=3;fontFamily=Helvetica;fontSize=16;fontColor=#23445D;spacing=5;fillColor=#e3c800;strokeColor=#660066;" parent="1" source="cFTijlWa25xeLsZB_8mZ-1758" target="cFTijlWa25xeLsZB_8mZ-1803" edge="1">
          <mxGeometry relative="1" as="geometry">
            <mxPoint x="2170.282082324455" y="430" as="sourcePoint" />
            <mxPoint x="2242.717917675545" y="568.5" as="targetPoint" />
          </mxGeometry>
        </mxCell>
        <mxCell id="cFTijlWa25xeLsZB_8mZ-1805" value="Singelton element (empty list)" style="rounded=1;whiteSpace=wrap;html=1;shadow=0;labelBackgroundColor=none;strokeColor=none;strokeWidth=3;fillColor=#2F5B7C;fontFamily=Helvetica;fontSize=23;fontColor=#FFFFFF;align=center;fontStyle=0;spacing=5;arcSize=7;perimeterSpacing=2;" parent="1" vertex="1">
          <mxGeometry x="2204" y="-370" width="222" height="61" as="geometry" />
        </mxCell>
        <mxCell id="cFTijlWa25xeLsZB_8mZ-1806" value="" style="edgeStyle=none;rounded=0;jumpStyle=none;html=1;shadow=0;labelBackgroundColor=none;startArrow=none;startFill=0;endArrow=classic;endFill=1;jettySize=auto;orthogonalLoop=1;strokeWidth=3;fontFamily=Helvetica;fontSize=16;fontColor=#23445D;spacing=5;fillColor=#e3c800;strokeColor=#660066;" parent="1" source="cFTijlWa25xeLsZB_8mZ-1752" target="cFTijlWa25xeLsZB_8mZ-1805" edge="1">
          <mxGeometry relative="1" as="geometry">
            <mxPoint x="2379" y="-228.4259259259261" as="sourcePoint" />
            <mxPoint x="2474.1164383561645" y="-257" as="targetPoint" />
          </mxGeometry>
        </mxCell>
        <mxCell id="cFTijlWa25xeLsZB_8mZ-1807" value="&lt;font style=&quot;font-size: 17px&quot;&gt;asymptotically slower/faster&lt;/font&gt;" style="rounded=1;whiteSpace=wrap;html=1;shadow=0;labelBackgroundColor=none;strokeColor=none;strokeWidth=3;fillColor=#2F5B7C;fontFamily=Helvetica;fontSize=17;fontColor=#FFFFFF;align=center;fontStyle=0;spacing=5;arcSize=7;perimeterSpacing=2;glass=0;" parent="1" vertex="1">
          <mxGeometry x="1227" y="533" width="119" height="50.5" as="geometry" />
        </mxCell>
        <mxCell id="cFTijlWa25xeLsZB_8mZ-1808" value="" style="edgeStyle=none;rounded=0;jumpStyle=none;html=1;shadow=0;labelBackgroundColor=none;startArrow=none;startFill=0;endArrow=classic;endFill=1;jettySize=auto;orthogonalLoop=1;strokeWidth=3;fontFamily=Helvetica;fontSize=16;fontColor=#23445D;spacing=5;fillColor=#e3c800;strokeColor=#660066;" parent="1" source="cFTijlWa25xeLsZB_8mZ-1771" target="cFTijlWa25xeLsZB_8mZ-1807" edge="1">
          <mxGeometry relative="1" as="geometry">
            <mxPoint x="1255.4772234273319" y="454" as="targetPoint" />
            <mxPoint x="1166.65726681128" y="395" as="sourcePoint" />
          </mxGeometry>
        </mxCell>
        <mxCell id="cFTijlWa25xeLsZB_8mZ-1809" value="Topilogical Sort" style="rounded=1;whiteSpace=wrap;html=1;shadow=0;labelBackgroundColor=none;strokeColor=none;strokeWidth=3;fillColor=#2F5B7C;fontFamily=Helvetica;fontSize=23;fontColor=#FFFFFF;align=center;fontStyle=0;spacing=5;arcSize=7;perimeterSpacing=2;" parent="1" vertex="1">
          <mxGeometry x="1297" y="-283" width="139" height="64" as="geometry" />
        </mxCell>
        <mxCell id="cFTijlWa25xeLsZB_8mZ-1810" value="" style="edgeStyle=none;rounded=0;jumpStyle=none;html=1;shadow=0;labelBackgroundColor=none;startArrow=none;startFill=0;endArrow=classic;endFill=1;jettySize=auto;orthogonalLoop=1;strokeWidth=3;fontFamily=Helvetica;fontSize=16;fontColor=#23445D;spacing=5;fillColor=#e3c800;strokeColor=#660066;" parent="1" source="cFTijlWa25xeLsZB_8mZ-1760" target="cFTijlWa25xeLsZB_8mZ-1809" edge="1">
          <mxGeometry relative="1" as="geometry">
            <mxPoint x="1724.0000000000005" y="-193.5689655172414" as="sourcePoint" />
            <mxPoint x="1641.0000000000005" y="-172.5804597701151" as="targetPoint" />
          </mxGeometry>
        </mxCell>
        <mxCell id="cFTijlWa25xeLsZB_8mZ-1812" value="Bredth-first Search" style="rounded=1;whiteSpace=wrap;html=1;shadow=0;labelBackgroundColor=none;strokeColor=none;strokeWidth=3;fillColor=#2F5B7C;fontFamily=Helvetica;fontSize=23;fontColor=#FFFFFF;align=center;fontStyle=0;spacing=5;arcSize=7;perimeterSpacing=2;" parent="1" vertex="1">
          <mxGeometry x="1245" y="-112.5" width="139" height="64" as="geometry" />
        </mxCell>
        <mxCell id="cFTijlWa25xeLsZB_8mZ-1813" value="" style="edgeStyle=none;rounded=0;jumpStyle=none;html=1;shadow=0;labelBackgroundColor=none;startArrow=none;startFill=0;endArrow=classic;endFill=1;jettySize=auto;orthogonalLoop=1;strokeWidth=3;fontFamily=Helvetica;fontSize=16;fontColor=#23445D;spacing=5;fillColor=#e3c800;strokeColor=#660066;" parent="1" source="cFTijlWa25xeLsZB_8mZ-1760" target="cFTijlWa25xeLsZB_8mZ-1812" edge="1">
          <mxGeometry relative="1" as="geometry">
            <mxPoint x="1740.2062146892658" y="-124.00000000000023" as="sourcePoint" />
            <mxPoint x="1834.0000000000005" y="-166.0804597701151" as="targetPoint" />
          </mxGeometry>
        </mxCell>
        <mxCell id="cFTijlWa25xeLsZB_8mZ-1814" value="Depth-first Search" style="rounded=1;whiteSpace=wrap;html=1;shadow=0;labelBackgroundColor=none;strokeColor=none;strokeWidth=3;fillColor=#2F5B7C;fontFamily=Helvetica;fontSize=23;fontColor=#FFFFFF;align=center;fontStyle=0;spacing=5;arcSize=7;perimeterSpacing=2;" parent="1" vertex="1">
          <mxGeometry x="1243" y="-193" width="139" height="64" as="geometry" />
        </mxCell>
        <mxCell id="cFTijlWa25xeLsZB_8mZ-1815" value="" style="edgeStyle=none;rounded=0;jumpStyle=none;html=1;shadow=0;labelBackgroundColor=none;startArrow=none;startFill=0;endArrow=classic;endFill=1;jettySize=auto;orthogonalLoop=1;strokeWidth=3;fontFamily=Helvetica;fontSize=16;fontColor=#23445D;spacing=5;fillColor=#e3c800;strokeColor=#660066;" parent="1" source="cFTijlWa25xeLsZB_8mZ-1760" target="cFTijlWa25xeLsZB_8mZ-1814" edge="1">
          <mxGeometry relative="1" as="geometry">
            <mxPoint x="1420.2062146892658" y="-124.00000000000023" as="sourcePoint" />
            <mxPoint x="1514.0000000000005" y="-166.0804597701151" as="targetPoint" />
          </mxGeometry>
        </mxCell>
        <mxCell id="cFTijlWa25xeLsZB_8mZ-1816" value="Dijkstra&#39;s algorithm" style="rounded=1;whiteSpace=wrap;html=1;shadow=0;labelBackgroundColor=none;strokeColor=none;strokeWidth=3;fillColor=#2F5B7C;fontFamily=Helvetica;fontSize=23;fontColor=#FFFFFF;align=center;fontStyle=0;spacing=5;arcSize=7;perimeterSpacing=2;" parent="1" vertex="1">
          <mxGeometry x="1612" y="-9" width="139" height="64" as="geometry" />
        </mxCell>
        <mxCell id="cFTijlWa25xeLsZB_8mZ-1817" value="" style="edgeStyle=none;rounded=0;jumpStyle=none;html=1;shadow=0;labelBackgroundColor=none;startArrow=none;startFill=0;endArrow=classic;endFill=1;jettySize=auto;orthogonalLoop=1;strokeWidth=3;fontFamily=Helvetica;fontSize=16;fontColor=#23445D;spacing=5;fillColor=#e3c800;strokeColor=#660066;" parent="1" source="PjtQzTcsDSTkfEky3M2W-1763" target="cFTijlWa25xeLsZB_8mZ-1816" edge="1">
          <mxGeometry relative="1" as="geometry">
            <mxPoint x="1617.2062146892658" y="6.499999999999773" as="sourcePoint" />
            <mxPoint x="1711.0000000000005" y="-35.58045977011511" as="targetPoint" />
          </mxGeometry>
        </mxCell>
        <mxCell id="PjtQzTcsDSTkfEky3M2W-1749" value="Binary" style="rounded=1;whiteSpace=wrap;html=1;shadow=0;labelBackgroundColor=none;strokeColor=none;strokeWidth=3;fillColor=#2F5B7C;fontFamily=Helvetica;fontSize=23;fontColor=#FFFFFF;align=center;fontStyle=0;spacing=5;arcSize=7;perimeterSpacing=2;" vertex="1" parent="1">
          <mxGeometry x="2647" y="383" width="109" height="64" as="geometry" />
        </mxCell>
        <mxCell id="PjtQzTcsDSTkfEky3M2W-1750" value="" style="edgeStyle=none;rounded=0;jumpStyle=none;html=1;shadow=0;labelBackgroundColor=none;startArrow=none;startFill=0;endArrow=classic;endFill=1;jettySize=auto;orthogonalLoop=1;strokeWidth=3;fontFamily=Helvetica;fontSize=16;fontColor=#23445D;spacing=5;fillColor=#e3c800;strokeColor=#660066;" edge="1" parent="1" target="PjtQzTcsDSTkfEky3M2W-1749" source="cFTijlWa25xeLsZB_8mZ-1794">
          <mxGeometry relative="1" as="geometry">
            <mxPoint x="2513" y="351.259581881533" as="sourcePoint" />
            <mxPoint x="2488" y="691" as="targetPoint" />
          </mxGeometry>
        </mxCell>
        <mxCell id="PjtQzTcsDSTkfEky3M2W-1751" value="Linear" style="rounded=1;whiteSpace=wrap;html=1;shadow=0;labelBackgroundColor=none;strokeColor=none;strokeWidth=3;fillColor=#2F5B7C;fontFamily=Helvetica;fontSize=23;fontColor=#FFFFFF;align=center;fontStyle=0;spacing=5;arcSize=7;perimeterSpacing=2;" vertex="1" parent="1">
          <mxGeometry x="2647" y="303" width="109" height="64" as="geometry" />
        </mxCell>
        <mxCell id="PjtQzTcsDSTkfEky3M2W-1752" value="" style="edgeStyle=none;rounded=0;jumpStyle=none;html=1;shadow=0;labelBackgroundColor=none;startArrow=none;startFill=0;endArrow=classic;endFill=1;jettySize=auto;orthogonalLoop=1;strokeWidth=3;fontFamily=Helvetica;fontSize=16;fontColor=#23445D;spacing=5;fillColor=#e3c800;strokeColor=#660066;" edge="1" parent="1" target="PjtQzTcsDSTkfEky3M2W-1751" source="cFTijlWa25xeLsZB_8mZ-1794">
          <mxGeometry relative="1" as="geometry">
            <mxPoint x="2519" y="448.8666666666668" as="sourcePoint" />
            <mxPoint x="2492" y="775" as="targetPoint" />
          </mxGeometry>
        </mxCell>
        <mxCell id="PjtQzTcsDSTkfEky3M2W-1753" value="Hash" style="rounded=1;whiteSpace=wrap;html=1;shadow=0;labelBackgroundColor=none;strokeColor=none;strokeWidth=3;fillColor=#2F5B7C;fontFamily=Helvetica;fontSize=23;fontColor=#FFFFFF;align=center;fontStyle=0;spacing=5;arcSize=7;perimeterSpacing=2;glass=0;" vertex="1" parent="1">
          <mxGeometry x="1001" y="-685" width="98" height="54" as="geometry" />
        </mxCell>
        <mxCell id="PjtQzTcsDSTkfEky3M2W-1754" value="" style="edgeStyle=none;rounded=0;jumpStyle=none;html=1;shadow=0;labelBackgroundColor=none;startArrow=none;startFill=0;endArrow=classic;endFill=1;jettySize=auto;orthogonalLoop=1;strokeWidth=3;fontFamily=Helvetica;fontSize=16;fontColor=#23445D;spacing=5;fillColor=#e3c800;strokeColor=#660066;" edge="1" parent="1" source="T0vurwcoZlo6JB8hRkQS-1799" target="PjtQzTcsDSTkfEky3M2W-1753">
          <mxGeometry relative="1" as="geometry">
            <mxPoint x="1204" y="-347.50227531285555" as="sourcePoint" />
            <mxPoint x="887" y="-331.99488054607514" as="targetPoint" />
          </mxGeometry>
        </mxCell>
        <mxCell id="PjtQzTcsDSTkfEky3M2W-1755" value="tables" style="rounded=1;whiteSpace=wrap;html=1;shadow=0;labelBackgroundColor=none;strokeColor=none;strokeWidth=3;fillColor=#2F5B7C;fontFamily=Helvetica;fontSize=23;fontColor=#FFFFFF;align=center;fontStyle=0;spacing=5;arcSize=7;perimeterSpacing=2;glass=0;" vertex="1" parent="1">
          <mxGeometry x="1171" y="-783" width="98" height="54" as="geometry" />
        </mxCell>
        <mxCell id="PjtQzTcsDSTkfEky3M2W-1756" value="" style="edgeStyle=none;rounded=0;jumpStyle=none;html=1;shadow=0;labelBackgroundColor=none;startArrow=none;startFill=0;endArrow=classic;endFill=1;jettySize=auto;orthogonalLoop=1;strokeWidth=3;fontFamily=Helvetica;fontSize=16;fontColor=#23445D;spacing=5;fillColor=#e3c800;strokeColor=#660066;" edge="1" parent="1" target="PjtQzTcsDSTkfEky3M2W-1755" source="PjtQzTcsDSTkfEky3M2W-1753">
          <mxGeometry relative="1" as="geometry">
            <mxPoint x="1410.8299663299663" y="-493" as="sourcePoint" />
            <mxPoint x="1057" y="-429.99488054607514" as="targetPoint" />
          </mxGeometry>
        </mxCell>
        <mxCell id="PjtQzTcsDSTkfEky3M2W-1757" value="map" style="rounded=1;whiteSpace=wrap;html=1;shadow=0;labelBackgroundColor=none;strokeColor=none;strokeWidth=3;fillColor=#2F5B7C;fontFamily=Helvetica;fontSize=23;fontColor=#FFFFFF;align=center;fontStyle=0;spacing=5;arcSize=7;perimeterSpacing=2;glass=0;" vertex="1" parent="1">
          <mxGeometry x="886" y="-777" width="98" height="54" as="geometry" />
        </mxCell>
        <mxCell id="PjtQzTcsDSTkfEky3M2W-1758" value="" style="edgeStyle=none;rounded=0;jumpStyle=none;html=1;shadow=0;labelBackgroundColor=none;startArrow=none;startFill=0;endArrow=classic;endFill=1;jettySize=auto;orthogonalLoop=1;strokeWidth=3;fontFamily=Helvetica;fontSize=16;fontColor=#23445D;spacing=5;fillColor=#e3c800;strokeColor=#660066;" edge="1" parent="1" target="PjtQzTcsDSTkfEky3M2W-1757" source="PjtQzTcsDSTkfEky3M2W-1753">
          <mxGeometry relative="1" as="geometry">
            <mxPoint x="1125.8299663299663" y="-487" as="sourcePoint" />
            <mxPoint x="772" y="-423.99488054607514" as="targetPoint" />
          </mxGeometry>
        </mxCell>
        <mxCell id="PjtQzTcsDSTkfEky3M2W-1759" value="linear probing" style="rounded=1;whiteSpace=wrap;html=1;shadow=0;labelBackgroundColor=none;strokeColor=none;strokeWidth=3;fillColor=#2F5B7C;fontFamily=Helvetica;fontSize=23;fontColor=#FFFFFF;align=center;fontStyle=0;spacing=5;arcSize=7;perimeterSpacing=2;glass=0;" vertex="1" parent="1">
          <mxGeometry x="1006" y="-808" width="114.31" height="72" as="geometry" />
        </mxCell>
        <mxCell id="PjtQzTcsDSTkfEky3M2W-1760" value="" style="edgeStyle=none;rounded=0;jumpStyle=none;html=1;shadow=0;labelBackgroundColor=none;startArrow=none;startFill=0;endArrow=classic;endFill=1;jettySize=auto;orthogonalLoop=1;strokeWidth=3;fontFamily=Helvetica;fontSize=16;fontColor=#23445D;spacing=5;fillColor=#e3c800;strokeColor=#660066;" edge="1" parent="1" target="PjtQzTcsDSTkfEky3M2W-1759" source="PjtQzTcsDSTkfEky3M2W-1753">
          <mxGeometry relative="1" as="geometry">
            <mxPoint x="947.9961224489798" y="-795" as="sourcePoint" />
            <mxPoint x="904.69" y="-537.9948805460751" as="targetPoint" />
          </mxGeometry>
        </mxCell>
        <mxCell id="PjtQzTcsDSTkfEky3M2W-1761" value="Deletetion" style="rounded=1;whiteSpace=wrap;html=1;shadow=0;labelBackgroundColor=none;strokeColor=none;strokeWidth=3;fillColor=#2F5B7C;fontFamily=Helvetica;fontSize=23;fontColor=#FFFFFF;align=center;fontStyle=0;spacing=5;arcSize=7;perimeterSpacing=2;glass=0;" vertex="1" parent="1">
          <mxGeometry x="449" y="-85" width="137" height="54" as="geometry" />
        </mxCell>
        <mxCell id="PjtQzTcsDSTkfEky3M2W-1762" value="" style="edgeStyle=none;rounded=0;jumpStyle=none;html=1;shadow=0;labelBackgroundColor=none;startArrow=none;startFill=0;endArrow=classic;endFill=1;jettySize=auto;orthogonalLoop=1;strokeWidth=3;fontFamily=Helvetica;fontSize=16;fontColor=#23445D;spacing=5;fillColor=#e3c800;strokeColor=#660066;" edge="1" parent="1" source="T0vurwcoZlo6JB8hRkQS-1782" target="PjtQzTcsDSTkfEky3M2W-1761">
          <mxGeometry relative="1" as="geometry">
            <mxPoint x="900.4768160741885" y="-25" as="targetPoint" />
            <mxPoint x="842.1406491499226" y="-300.5" as="sourcePoint" />
          </mxGeometry>
        </mxCell>
        <mxCell id="PjtQzTcsDSTkfEky3M2W-1763" value="Shortest path" style="rounded=1;whiteSpace=wrap;html=1;shadow=0;labelBackgroundColor=none;strokeColor=none;strokeWidth=3;fillColor=#2F5B7C;fontFamily=Helvetica;fontSize=23;fontColor=#FFFFFF;align=center;fontStyle=0;spacing=5;arcSize=7;perimeterSpacing=2;" vertex="1" parent="1">
          <mxGeometry x="1492" y="-105" width="139" height="64" as="geometry" />
        </mxCell>
        <mxCell id="PjtQzTcsDSTkfEky3M2W-1764" value="" style="edgeStyle=none;rounded=0;jumpStyle=none;html=1;shadow=0;labelBackgroundColor=none;startArrow=none;startFill=0;endArrow=classic;endFill=1;jettySize=auto;orthogonalLoop=1;strokeWidth=3;fontFamily=Helvetica;fontSize=16;fontColor=#23445D;spacing=5;fillColor=#e3c800;strokeColor=#660066;" edge="1" parent="1" source="cFTijlWa25xeLsZB_8mZ-1760" target="PjtQzTcsDSTkfEky3M2W-1763">
          <mxGeometry relative="1" as="geometry">
            <mxPoint x="1791.2062146892658" y="101.99999999999977" as="sourcePoint" />
            <mxPoint x="1771.332898172324" y="88.5" as="targetPoint" />
          </mxGeometry>
        </mxCell>
        <mxCell id="PjtQzTcsDSTkfEky3M2W-1765" value="Bellman Ford&#39;s algorithm" style="rounded=1;whiteSpace=wrap;html=1;shadow=0;labelBackgroundColor=none;strokeColor=none;strokeWidth=3;fillColor=#2F5B7C;fontFamily=Helvetica;fontSize=23;fontColor=#FFFFFF;align=center;fontStyle=0;spacing=5;arcSize=7;perimeterSpacing=2;" vertex="1" parent="1">
          <mxGeometry x="1388" y="-9" width="165" height="64" as="geometry" />
        </mxCell>
        <mxCell id="PjtQzTcsDSTkfEky3M2W-1766" value="" style="edgeStyle=none;rounded=0;jumpStyle=none;html=1;shadow=0;labelBackgroundColor=none;startArrow=none;startFill=0;endArrow=classic;endFill=1;jettySize=auto;orthogonalLoop=1;strokeWidth=3;fontFamily=Helvetica;fontSize=16;fontColor=#23445D;spacing=5;fillColor=#e3c800;strokeColor=#660066;" edge="1" parent="1" target="PjtQzTcsDSTkfEky3M2W-1765" source="PjtQzTcsDSTkfEky3M2W-1763">
          <mxGeometry relative="1" as="geometry">
            <mxPoint x="1394" y="-24" as="sourcePoint" />
            <mxPoint x="1501.0000000000005" y="-20.580459770115112" as="targetPoint" />
          </mxGeometry>
        </mxCell>
      </root>
    </mxGraphModel>
  </diagram>
</mxfile>
